<svg width="65" height="65" viewBox="0 0 65 65" fill="none" xmlns="http://www.w3.org/2000/svg">
<g filter="url(#filter0_d_60_3500)">
<rect x="5" y="5" width="55" height="55" rx="27.5" fill="#5928E5" fill-opacity="0.07" shape-rendering="crispEdges"/>
<rect x="6" y="6" width="53" height="53" rx="26.5" stroke="white" stroke-width="2" shape-rendering="crispEdges"/>
<g clip-path="url(#clip0_60_3500)">
<path d="M25.2111 33.211H39.7889V35.9488H41.2111V31.7888H33.2111V28.9443H31.7889V31.7888H23.7889V35.9488H25.2111V33.211Z" fill="url(#paint0_linear_60_3500)"/>
<path d="M28.9444 36.9443H20.0555C19.5841 36.9443 19.1319 37.1316 18.7985 37.465C18.4651 37.7984 18.2778 38.2506 18.2778 38.7221V44.0554C18.2778 44.5269 18.4651 44.9791 18.7985 45.3125C19.1319 45.6459 19.5841 45.8332 20.0555 45.8332H28.9444C29.4159 45.8332 29.8681 45.6459 30.2015 45.3125C30.5349 44.9791 30.7222 44.5269 30.7222 44.0554V38.7221C30.7222 38.2506 30.5349 37.7984 30.2015 37.465C29.8681 37.1316 29.4159 36.9443 28.9444 36.9443ZM20.0555 44.0554V38.7221H28.9444V44.0554H20.0555Z" fill="url(#paint1_linear_60_3500)"/>
<path d="M44.9444 36.9443H36.0555C35.5841 36.9443 35.1319 37.1316 34.7985 37.465C34.4651 37.7984 34.2778 38.2506 34.2778 38.7221V44.0554C34.2778 44.5269 34.4651 44.9791 34.7985 45.3125C35.1319 45.6459 35.5841 45.8332 36.0555 45.8332H44.9444C45.4159 45.8332 45.8681 45.6459 46.2015 45.3125C46.5349 44.9791 46.7222 44.5269 46.7222 44.0554V38.7221C46.7222 38.2506 46.5349 37.7984 46.2015 37.465C45.8681 37.1316 45.4159 36.9443 44.9444 36.9443ZM36.0555 44.0554V38.7221H44.9444V44.0554H36.0555Z" fill="url(#paint2_linear_60_3500)"/>
<path d="M28.0555 28.0554H36.9444C37.4159 28.0554 37.8681 27.8681 38.2015 27.5347C38.5349 27.2013 38.7222 26.7491 38.7222 26.2776V20.9443C38.7222 20.4728 38.5349 20.0206 38.2015 19.6872C37.8681 19.3538 37.4159 19.1665 36.9444 19.1665H28.0555C27.5841 19.1665 27.1319 19.3538 26.7985 19.6872C26.4651 20.0206 26.2778 20.4728 26.2778 20.9443V26.2776C26.2778 26.7491 26.4651 27.2013 26.7985 27.5347C27.1319 27.8681 27.5841 28.0554 28.0555 28.0554ZM28.0555 20.9443H36.9444V26.2776H28.0555V20.9443Z" fill="url(#paint3_linear_60_3500)"/>
</g>
</g>
<defs>
<filter id="filter0_d_60_3500" x="0.4" y="0.4" width="64.2" height="64.2" filterUnits="userSpaceOnUse" color-interpolation-filters="sRGB">
<feFlood flood-opacity="0" result="BackgroundImageFix"/>
<feColorMatrix in="SourceAlpha" type="matrix" values="0 0 0 0 0 0 0 0 0 0 0 0 0 0 0 0 0 0 127 0" result="hardAlpha"/>
<feOffset/>
<feGaussianBlur stdDeviation="2.3"/>
<feComposite in2="hardAlpha" operator="out"/>
<feColorMatrix type="matrix" values="0 0 0 0 0.465 0 0 0 0 0.465 0 0 0 0 0.465 0 0 0 0.25 0"/>
<feBlend mode="normal" in2="BackgroundImageFix" result="effect1_dropShadow_60_3500"/>
<feBlend mode="normal" in="SourceGraphic" in2="effect1_dropShadow_60_3500" result="shape"/>
</filter>
<linearGradient id="paint0_linear_60_3500" x1="23.7889" y1="28.9443" x2="28.6373" y2="41.0039" gradientUnits="userSpaceOnUse">
<stop stop-color="#5928E5"/>
<stop offset="1" stop-color="#A259FF"/>
</linearGradient>
<linearGradient id="paint1_linear_60_3500" x1="18.2778" y1="36.9443" x2="26.6862" y2="48.7161" gradientUnits="userSpaceOnUse">
<stop stop-color="#5928E5"/>
<stop offset="1" stop-color="#A259FF"/>
</linearGradient>
<linearGradient id="paint2_linear_60_3500" x1="34.2778" y1="36.9443" x2="42.6862" y2="48.7161" gradientUnits="userSpaceOnUse">
<stop stop-color="#5928E5"/>
<stop offset="1" stop-color="#A259FF"/>
</linearGradient>
<linearGradient id="paint3_linear_60_3500" x1="26.2778" y1="19.1665" x2="34.6862" y2="30.9383" gradientUnits="userSpaceOnUse">
<stop stop-color="#5928E5"/>
<stop offset="1" stop-color="#A259FF"/>
</linearGradient>
<clipPath id="clip0_60_3500">
<rect width="32" height="32" fill="white" transform="translate(16.5 16.5)"/>
</clipPath>
</defs>
</svg>
