<svg width="65" height="65" viewBox="0 0 65 65" fill="none" xmlns="http://www.w3.org/2000/svg">
<g filter="url(#filter0_d_60_3511)">
<rect x="5" y="5" width="55" height="55" rx="27.5" fill="#5928E5" fill-opacity="0.07" shape-rendering="crispEdges"/>
<rect x="6" y="6" width="53" height="53" rx="26.5" stroke="white" stroke-width="2" shape-rendering="crispEdges"/>
<g clip-path="url(#clip0_60_3511)">
<path d="M20.9444 17.3887C20.7087 17.3887 20.4826 17.4823 20.3159 17.649C20.1492 17.8157 20.0555 18.0418 20.0555 18.2776V46.722C20.0555 46.9578 20.1492 47.1838 20.3159 47.3505C20.4826 47.5172 20.7087 47.6109 20.9444 47.6109C21.1802 47.6109 21.4063 47.5172 21.573 47.3505C21.7397 47.1838 21.8333 46.9578 21.8333 46.722V18.2776C21.8333 18.0418 21.7397 17.8157 21.573 17.649C21.4063 17.4823 21.1802 17.3887 20.9444 17.3887Z" fill="url(#paint0_linear_60_3511)"/>
<path d="M44.0556 34.2778H23.6111V43.1667H44.0556C44.2913 43.1667 44.5174 43.0731 44.6841 42.9064C44.8508 42.7397 44.9444 42.5136 44.9444 42.2778V35.1667C44.9444 34.931 44.8508 34.7049 44.6841 34.5382C44.5174 34.3715 44.2913 34.2778 44.0556 34.2778ZM43.1667 41.3889H25.3889V36.0556H43.1667V41.3889Z" fill="url(#paint1_linear_60_3511)"/>
<path d="M37.8333 29.8335V22.7224C37.8333 22.4866 37.7397 22.2605 37.573 22.0938C37.4063 21.9271 37.1802 21.8335 36.9444 21.8335H23.6111V30.7224H36.9444C37.1802 30.7224 37.4063 30.6287 37.573 30.462C37.7397 30.2953 37.8333 30.0692 37.8333 29.8335ZM36.0556 28.9446H25.3889V23.6113H36.0556V28.9446Z" fill="url(#paint2_linear_60_3511)"/>
</g>
</g>
<defs>
<filter id="filter0_d_60_3511" x="0.4" y="0.4" width="64.2" height="64.2" filterUnits="userSpaceOnUse" color-interpolation-filters="sRGB">
<feFlood flood-opacity="0" result="BackgroundImageFix"/>
<feColorMatrix in="SourceAlpha" type="matrix" values="0 0 0 0 0 0 0 0 0 0 0 0 0 0 0 0 0 0 127 0" result="hardAlpha"/>
<feOffset/>
<feGaussianBlur stdDeviation="2.3"/>
<feComposite in2="hardAlpha" operator="out"/>
<feColorMatrix type="matrix" values="0 0 0 0 0.465 0 0 0 0 0.465 0 0 0 0 0.465 0 0 0 0.25 0"/>
<feBlend mode="normal" in2="BackgroundImageFix" result="effect1_dropShadow_60_3511"/>
<feBlend mode="normal" in="SourceGraphic" in2="effect1_dropShadow_60_3511" result="shape"/>
</filter>
<linearGradient id="paint0_linear_60_3511" x1="20.0555" y1="17.3887" x2="23.5988" y2="17.5971" gradientUnits="userSpaceOnUse">
<stop stop-color="#5928E5"/>
<stop offset="1" stop-color="#A259FF"/>
</linearGradient>
<linearGradient id="paint1_linear_60_3511" x1="23.6111" y1="34.2778" x2="29.9228" y2="49.4258" gradientUnits="userSpaceOnUse">
<stop stop-color="#5928E5"/>
<stop offset="1" stop-color="#A259FF"/>
</linearGradient>
<linearGradient id="paint2_linear_60_3511" x1="23.6111" y1="21.8335" x2="31.6011" y2="34.6175" gradientUnits="userSpaceOnUse">
<stop stop-color="#5928E5"/>
<stop offset="1" stop-color="#A259FF"/>
</linearGradient>
<clipPath id="clip0_60_3511">
<rect width="32" height="32" fill="white" transform="translate(16.5 16.5)"/>
</clipPath>
</defs>
</svg>
