<svg width="65" height="65" viewBox="0 0 65 65" fill="none" xmlns="http://www.w3.org/2000/svg">
<g filter="url(#filter0_d_60_3531)">
<rect x="5" y="5" width="55" height="55" rx="27.5" fill="#5928E5" fill-opacity="0.07" shape-rendering="crispEdges"/>
<rect x="6" y="6" width="53" height="53" rx="26.5" stroke="white" stroke-width="2" shape-rendering="crispEdges"/>
<g clip-path="url(#clip0_60_3531)">
<path d="M46.26 42.8376L40.2688 27.0065C40.186 26.7882 40.0609 26.5884 39.9008 26.4184C39.7407 26.2484 39.5487 26.1117 39.3358 26.0159C39.1228 25.9201 38.8931 25.8673 38.6597 25.8603C38.4263 25.8534 38.1938 25.8925 37.9755 25.9754L35.1666 27.0332V24.4287C35.1666 23.9761 34.9868 23.542 34.6668 23.2219C34.3467 22.9019 33.9126 22.7221 33.46 22.7221H28.9444V20.8732C28.9444 20.4205 28.7646 19.9864 28.4445 19.6664C28.1245 19.3463 27.6904 19.1665 27.2377 19.1665H20.9444C20.4729 19.1665 20.0207 19.3538 19.6873 19.6872C19.3539 20.0206 19.1666 20.4728 19.1666 20.9443V44.9443C19.1666 45.18 19.2603 45.4061 19.427 45.5728C19.5937 45.7395 19.8198 45.8332 20.0555 45.8332H34.2777C34.5135 45.8332 34.7396 45.7395 34.9063 45.5728C35.073 45.4061 35.1666 45.18 35.1666 44.9443V33.6287L39.6111 45.3709C39.6525 45.4801 39.715 45.58 39.7951 45.665C39.8751 45.75 39.9711 45.8184 40.0776 45.8663C40.1841 45.9141 40.299 45.9406 40.4157 45.944C40.5324 45.9475 40.6486 45.928 40.7577 45.8865L45.7444 43.9843C45.8536 43.9429 45.9535 43.8803 46.0385 43.8003C46.1234 43.7202 46.1918 43.6242 46.2397 43.5177C46.2876 43.4113 46.314 43.2964 46.3175 43.1797C46.321 43.063 46.3014 42.9468 46.26 42.8376ZM27.1666 24.3487V44.0554H20.9444V20.9443H27.1666V24.3487ZM33.3888 44.0554H28.9444V24.4998H33.3888V44.0554ZM40.9533 43.8332L35.2822 28.8732L38.6066 27.6109L44.2866 42.5709L40.9533 43.8332Z" fill="url(#paint0_linear_60_3531)"/>
</g>
</g>
<defs>
<filter id="filter0_d_60_3531" x="0.4" y="0.4" width="64.2" height="64.2" filterUnits="userSpaceOnUse" color-interpolation-filters="sRGB">
<feFlood flood-opacity="0" result="BackgroundImageFix"/>
<feColorMatrix in="SourceAlpha" type="matrix" values="0 0 0 0 0 0 0 0 0 0 0 0 0 0 0 0 0 0 127 0" result="hardAlpha"/>
<feOffset/>
<feGaussianBlur stdDeviation="2.3"/>
<feComposite in2="hardAlpha" operator="out"/>
<feColorMatrix type="matrix" values="0 0 0 0 0.465 0 0 0 0 0.465 0 0 0 0 0.465 0 0 0 0.25 0"/>
<feBlend mode="normal" in2="BackgroundImageFix" result="effect1_dropShadow_60_3531"/>
<feBlend mode="normal" in="SourceGraphic" in2="effect1_dropShadow_60_3531" result="shape"/>
</filter>
<linearGradient id="paint0_linear_60_3531" x1="19.1666" y1="19.1665" x2="45.942" y2="46.3152" gradientUnits="userSpaceOnUse">
<stop stop-color="#5928E5"/>
<stop offset="1" stop-color="#A259FF"/>
</linearGradient>
<clipPath id="clip0_60_3531">
<rect width="32" height="32" fill="white" transform="translate(16.5 16.5)"/>
</clipPath>
</defs>
</svg>
