<svg width="65" height="65" viewBox="0 0 65 65" fill="none" xmlns="http://www.w3.org/2000/svg">
<g filter="url(#filter0_d_60_3521)">
<rect x="5" y="5" width="55" height="55" rx="27.5" fill="#5928E5" fill-opacity="0.07" shape-rendering="crispEdges"/>
<rect x="6" y="6" width="53" height="53" rx="26.5" stroke="white" stroke-width="2" shape-rendering="crispEdges"/>
<g clip-path="url(#clip0_60_3521)">
<path d="M44.9444 20.9443H20.0555C19.5841 20.9443 19.1319 21.1316 18.7985 21.465C18.4651 21.7984 18.2778 22.2506 18.2778 22.7221V42.2777C18.2778 42.7492 18.4651 43.2013 18.7985 43.5347C19.1319 43.8681 19.5841 44.0554 20.0555 44.0554H44.9444C45.4159 44.0554 45.8681 43.8681 46.2015 43.5347C46.5349 43.2013 46.7222 42.7492 46.7222 42.2777V22.7221C46.7222 22.2506 46.5349 21.7984 46.2015 21.465C45.8681 21.1316 45.4159 20.9443 44.9444 20.9443ZM20.0555 22.7221H44.9444V24.6777H20.0555V22.7221ZM20.0555 42.2777V26.0999H44.9444V42.2777H20.0555Z" fill="url(#paint0_linear_60_3521)"/>
<path d="M36.9444 36.9443H31.6111V38.7221H36.9444V36.9443Z" fill="url(#paint1_linear_60_3521)"/>
<path d="M22.7222 30.438L28.7578 33.2113L22.7222 35.9758V37.9313L31.2556 34.0113V32.4024L22.7222 28.4824V30.438Z" fill="url(#paint2_linear_60_3521)"/>
</g>
</g>
<defs>
<filter id="filter0_d_60_3521" x="0.4" y="0.4" width="64.2" height="64.2" filterUnits="userSpaceOnUse" color-interpolation-filters="sRGB">
<feFlood flood-opacity="0" result="BackgroundImageFix"/>
<feColorMatrix in="SourceAlpha" type="matrix" values="0 0 0 0 0 0 0 0 0 0 0 0 0 0 0 0 0 0 127 0" result="hardAlpha"/>
<feOffset/>
<feGaussianBlur stdDeviation="2.3"/>
<feComposite in2="hardAlpha" operator="out"/>
<feColorMatrix type="matrix" values="0 0 0 0 0.465 0 0 0 0 0.465 0 0 0 0 0.465 0 0 0 0.25 0"/>
<feBlend mode="normal" in2="BackgroundImageFix" result="effect1_dropShadow_60_3521"/>
<feBlend mode="normal" in="SourceGraphic" in2="effect1_dropShadow_60_3521" result="shape"/>
</filter>
<linearGradient id="paint0_linear_60_3521" x1="18.2778" y1="20.9443" x2="40.8995" y2="48.7864" gradientUnits="userSpaceOnUse">
<stop stop-color="#5928E5"/>
<stop offset="1" stop-color="#A259FF"/>
</linearGradient>
<linearGradient id="paint1_linear_60_3521" x1="31.6111" y1="36.9443" x2="32.6778" y2="40.1443" gradientUnits="userSpaceOnUse">
<stop stop-color="#5928E5"/>
<stop offset="1" stop-color="#A259FF"/>
</linearGradient>
<linearGradient id="paint2_linear_60_3521" x1="22.7222" y1="28.4824" x2="32.1223" y2="36.9716" gradientUnits="userSpaceOnUse">
<stop stop-color="#5928E5"/>
<stop offset="1" stop-color="#A259FF"/>
</linearGradient>
<clipPath id="clip0_60_3521">
<rect width="32" height="32" fill="white" transform="translate(16.5 16.5)"/>
</clipPath>
</defs>
</svg>
