<svg width="1440" height="129" viewBox="0 0 1440 129" fill="none" xmlns="http://www.w3.org/2000/svg">
<path d="M-0.430576 5.51973C28.6724 22.5448 129.581 107.222 174.187 107.67C218.794 108.118 220.426 6.1171 267.208 8.2079C313.991 10.2987 404.02 119.916 454.882 120.215C505.744 120.514 529.135 9.10396 572.382 10C615.628 10.8961 670.571 126.189 714.361 125.591C758.152 124.994 794.054 7.90922 835.125 6.41579C876.196 4.92236 919.986 117.228 960.785 116.631C1001.58 116.033 1038.3 1.63682 1079.92 2.83156C1121.53 4.0263 1149.82 120.663 1210.47 123.799C1271.13 126.936 1404.95 38.6738 1443.84 21.6488" stroke="url(#paint0_linear_67_46)" stroke-opacity="0.1" stroke-width="5" stroke-linecap="round"/>
<defs>
<linearGradient id="paint0_linear_67_46" x1="-0.430576" y1="2.82227" x2="20.2923" y2="246.604" gradientUnits="userSpaceOnUse">
<stop stop-color="#5928E5"/>
<stop offset="1" stop-color="#A259FF"/>
</linearGradient>
</defs>
</svg>
