<svg width="1439" height="415" viewBox="0 0 1439 415" fill="none" xmlns="http://www.w3.org/2000/svg">
<path d="M861.3 0L485.1 415H1256.4L861.3 0Z" fill="#332FD0"/>
<path d="M861.3 0L785.61 415H1256.4L861.3 0Z" fill="#3D155F"/>
<path d="M-54 415L358.2 195.511L734.4 415H-54Z" fill="#4028B7"/>
<path d="M303.3 415L358.2 195.511L734.4 415H303.3Z" fill="#421873"/>
<path d="M1082.7 88.5332L1396.8 415H788.4L1082.7 88.5332Z" fill="#45219F"/>
<path d="M1082.7 88.5332L1396.8 415H1045.8L1082.7 88.5332Z" fill="#451C89"/>
<path d="M576.9 225.944L797.4 415H330.3L576.9 225.944Z" fill="#451C89"/>
<path d="M528.3 415L576.9 225.944L797.4 415H528.3Z" fill="#45219F"/>
<path d="M1539 415L1260.9 167.844L986.4 415H1539Z" fill="#421873"/>
<path d="M1539 415L1260.9 167.844L1228.5 415H1539Z" fill="#4028B7"/>
<path d="M1089 415L873.9 218.566L652.5 415H1089Z" fill="#3D155F"/>
<path d="M848.7 415H1089L873.9 218.566L848.7 415Z" fill="#332FD0"/>
</svg>
