<svg width="687" height="155" viewBox="0 0 687 155" fill="none" xmlns="http://www.w3.org/2000/svg">
<path opacity="0.1" d="M20 58C47 44.6667 74 38 101 38C141.5 38 141.5 58 182 58C222.5 58 222.627 38 263 38C303.373 38 303.123 58 343.5 58C383.877 58 384 38 424.5 38C465 38 465 58 505.5 58C546 58 546.127 38 586.5 38C613.415 38 640.249 44.6667 667 58" stroke="#C5AFFF" stroke-width="7" stroke-linecap="round" stroke-linejoin="round"/>
<path opacity="0.2" d="M20 78C47 64.6667 74 58 101 58C141.5 58 141.5 78 182 78C222.5 78 222.627 58 263 58C303.373 58 303.123 78 343.5 78C383.877 78 384 58 424.5 58C465 58 465 78 505.5 78C546 78 546.127 58 586.5 58C613.415 58 640.249 64.6667 667 78" stroke="#B090FF" stroke-width="7" stroke-linecap="round" stroke-linejoin="round"/>
<path opacity="0.6" d="M20 98C47 84.6667 74 78 101 78C141.5 78 141.5 98 182 98C222.5 98 222.627 78 263 78C303.373 78 303.123 98 343.5 98C383.877 98 384 78 424.5 78C465 78 465 98 505.5 98C546 98 546.127 78 586.5 78C613.415 78 640.249 84.6667 667 98" stroke="#803AEA" stroke-width="7" stroke-linecap="round" stroke-linejoin="round"/>
<path d="M20 118C47 104.667 74 98 101 98C141.5 98 141.5 118 182 118C222.5 118 222.627 98 263 98C303.373 98 303.123 118 343.5 118C383.877 118 384 98 424.5 98C465 98 465 118 505.5 118C546 118 546.127 98 586.5 98C613.415 98 640.249 104.667 667 118" stroke="#7538D4" stroke-width="7" stroke-linecap="round" stroke-linejoin="round"/>
</svg>
